<?xml version="1.0" standalone="no"?>
<!DOCTYPE svg PUBLIC "-//W3C//DTD SVG 20010904//EN"
 "http://www.w3.org/TR/2001/REC-SVG-20010904/DTD/svg10.dtd">
<svg version="1.0" xmlns="http://www.w3.org/2000/svg"
 width="1024.000000pt" height="1024.000000pt" viewBox="0 0 1024.000000 1024.000000"
 preserveAspectRatio="xMidYMid meet">

<g transform="translate(0.000000,1024.000000) scale(0.100000,-0.100000)"
fill="#ffffff" stroke="none">
<path d="M5380 8429 l-35 -11 25 -20 c14 -11 90 -61 170 -110 l145 -90 140
-29 c600 -120 1115 -409 1600 -894 343 -343 550 -651 714 -1064 99 -247 147
-459 162 -716 19 -319 -22 -821 -82 -1012 l-10 -33 -1692 -2 -1692 -3 -81 -27
c-471 -160 -618 -783 -272 -1153 70 -75 157 -137 238 -170 128 -51 103 -49
665 -55 526 -5 530 -5 580 -28 66 -30 89 -53 115 -115 67 -155 -62 -338 -271
-386 -27 -7 -309 -11 -745 -11 -665 0 -705 1 -778 20 -154 39 -295 133 -400
265 -71 89 -109 160 -142 270 -36 120 -45 352 -19 490 50 271 179 506 399 728
153 154 270 237 523 368 392 203 605 351 824 569 457 456 697 1044 676 1660
-16 459 -167 830 -457 1121 -126 126 -219 193 -375 269 -348 170 -717 198
-1128 85 -481 -132 -942 -406 -1337 -796 -561 -553 -915 -1255 -1005 -1989
-11 -95 -26 -150 -84 -315 -39 -110 -107 -311 -152 -447 -79 -234 -82 -248
-71 -286 14 -48 -25 -28 514 -258 l398 -169 0 -157 c0 -87 -3 -158 -7 -158 -5
0 -26 31 -47 68 -69 117 -94 149 -142 181 -58 38 -96 40 -129 6 -44 -43 -35
-90 46 -255 143 -292 255 -477 410 -680 228 -300 483 -539 809 -759 464 -314
881 -475 1415 -547 158 -21 587 -25 740 -6 299 37 572 104 840 207 94 35 335
152 449 217 305 173 649 454 866 706 175 204 295 382 403 596 51 101 60 128
64 185 3 52 0 73 -15 100 -42 78 -149 93 -205 31 -28 -31 -29 -36 -23 -99 l7
-66 -72 -125 c-209 -367 -469 -654 -837 -928 -376 -279 -850 -486 -1274 -556
-367 -60 -667 -59 -1109 4 -298 43 -435 85 -657 201 -186 96 -263 142 -457
272 -169 113 -197 134 -345 263 -165 145 -301 291 -438 471 l-62 82 0 746 c0
806 1 792 -53 828 -33 21 -95 22 -125 1 -48 -34 -52 -56 -52 -322 l0 -249
-287 124 c-159 69 -307 133 -330 143 l-41 19 40 113 c22 62 102 295 177 518
76 223 142 413 147 421 14 24 904 471 908 456 114 -389 333 -669 592 -756 105
-36 268 -41 366 -11 116 35 185 77 279 170 149 146 258 342 335 599 4 11 7 11
22 -2 20 -18 488 -252 615 -308 113 -50 162 -52 211 -9 47 42 62 89 42 129
-17 31 -21 34 -261 144 -66 31 -180 85 -254 122 -230 114 -494 232 -599 269
-172 60 -232 98 -306 194 -49 65 -96 143 -96 160 0 7 6 12 14 12 25 0 164 100
200 143 136 166 135 377 -1 545 -70 86 -206 152 -312 152 -57 0 -147 -23 -203
-51 -64 -33 -145 -120 -180 -194 -25 -54 -30 -75 -26 -116 9 -88 74 -129 146
-91 30 15 40 28 54 72 31 94 104 150 197 150 113 0 201 -88 201 -200 0 -77
-50 -148 -139 -195 -114 -62 -164 -113 -293 -302 -110 -162 -182 -215 -377
-275 -134 -42 -346 -140 -768 -354 -233 -118 -363 -179 -363 -170 0 19 78 248
119 351 42 105 172 356 245 473 132 213 294 409 512 622 199 194 357 315 602
464 235 142 510 253 762 307 153 33 384 33 530 1 493 -111 841 -455 969 -957
88 -349 57 -771 -83 -1135 -110 -284 -274 -528 -508 -756 -215 -210 -406 -338
-810 -540 -419 -210 -744 -549 -900 -938 -133 -334 -134 -723 -3 -1011 133
-292 360 -483 677 -568 82 -22 90 -22 798 -22 709 0 716 0 794 23 137 38 222
86 306 171 115 116 160 220 160 367 0 163 -82 306 -222 388 -106 62 -86 60
-658 66 -506 6 -527 7 -591 28 -333 110 -443 519 -209 775 68 75 148 115 250
127 83 9 3250 13 3250 4 0 -3 -5 -14 -10 -25 -15 -27 -15 -82 0 -119 22 -54
92 -75 148 -46 48 25 91 127 152 361 65 252 98 493 107 775 18 607 -109 1103
-412 1605 -312 520 -761 964 -1288 1274 -403 237 -900 391 -1307 406 -67 3
-130 0 -150 -6z m-1484 -1875 c94 -129 223 -214 388 -257 l89 -23 -59 -46
c-65 -52 -191 -117 -274 -143 -30 -9 -103 -19 -162 -22 -134 -7 -262 19 -377
78 -71 37 -197 126 -189 134 2 2 36 11 77 19 154 32 316 140 416 276 20 28 38
50 40 50 1 0 25 -30 51 -66z m-441 -635 c239 -124 538 -126 770 -5 33 17 64
33 68 35 14 6 -33 -80 -78 -144 -61 -85 -135 -151 -213 -188 -60 -28 -77 -32
-157 -32 -80 0 -97 4 -155 31 -82 39 -145 91 -214 178 -53 66 -117 172 -100
165 5 -2 41 -20 79 -40z"/>
<path d="M6960 7030 c-246 -33 -464 -187 -571 -405 -113 -230 -113 -497 -2
-707 l25 -46 -40 -54 c-49 -65 -82 -129 -97 -188 l-11 -45 -75 -5 c-128 -10
-232 -74 -286 -177 -43 -82 -56 -149 -42 -231 24 -157 130 -268 287 -301 71
-15 1384 -15 1468 0 32 5 100 30 149 54 263 127 410 398 374 690 -26 210 -134
391 -295 497 l-64 42 6 96 c15 218 -61 414 -221 576 -66 67 -96 89 -175 127
-52 26 -120 53 -150 61 -76 19 -202 26 -280 16z m225 -245 c185 -49 333 -213
365 -406 7 -39 9 -90 6 -114 l-7 -43 -115 -4 -116 -3 -34 -37 c-28 -32 -34
-45 -34 -84 0 -37 5 -51 28 -74 39 -39 92 -52 155 -38 161 34 342 -65 424
-233 87 -177 61 -382 -67 -522 -46 -50 -164 -126 -177 -113 -3 3 4 27 15 53
63 148 44 321 -52 466 -79 118 -192 187 -327 197 -76 5 -78 6 -131 57 -121
114 -269 155 -427 118 -36 -9 -70 -14 -77 -11 -18 7 -63 128 -75 205 -29 173
47 372 183 484 51 42 150 93 205 106 61 14 194 12 258 -4z m-304 -1020 c57
-21 101 -56 136 -109 l28 -43 100 -5 c112 -5 157 -22 212 -80 43 -45 64 -99
64 -168 1 -115 -44 -194 -135 -236 l-51 -24 -526 0 -526 0 -34 23 c-86 58 -78
172 16 217 35 17 62 20 167 20 l125 0 5 78 c9 156 95 281 225 328 51 18 141
17 194 -1z"/>
<path d="M4922 3834 c-55 -38 -67 -115 -26 -164 56 -66 -50 -62 1418 -61 830
0 1342 4 1357 10 42 15 79 67 79 109 -1 46 -18 78 -56 103 -28 18 -62 19
-1389 19 -1217 0 -1363 -2 -1383 -16z"/>
</g>
</svg>
